<svg width="48" height="40" viewBox="0 0 48 40" fill="none" xmlns="http://www.w3.org/2000/svg">
  <path d="M24.2895 5.33594C26.6565 5.33594 28.4829 9.38882 29.6078 12.0985C30.344 13.872 31.8784 16.7867 33.6787 18.5375C35.9598 13.1081 37.5898 2.24298e-05 39.8422 0C42.7449 1.3543e-05 48 9.03228 48 19.9283C48 30.8634 42.7486 40 39.8425 40C37.5947 40 35.966 26.9286 33.6937 21.4484C31.8836 23.1966 30.3394 26.1284 29.6001 27.9093C28.4752 30.619 26.6488 34.6719 24.2818 34.6719C21.9148 34.6719 20.0884 30.619 18.9635 27.9093C18.1348 25.9131 16.2949 22.4711 14.2029 20.8704C13.0021 21.9927 11.973 23.9415 11.4853 25.1164C10.7574 26.8697 9.57563 29.4922 8.04405 29.4922C6.51248 29.4922 5.33066 26.8697 4.60281 25.1164C3.89937 23.4219 2.04103 20.1119 0.192423 19.9989C0.128287 20.0029 0.0641309 20.0029 0 19.9989C0.0640967 19.995 0.128254 19.995 0.192423 19.9989C2.03905 19.8862 3.86842 16.5819 4.57184 14.8875C5.2997 13.1342 6.48152 10.5117 8.01309 10.5117C9.54467 10.5117 10.7265 13.1342 11.4543 14.8875C11.9447 16.0688 12.9824 18.0326 14.1916 19.1518C16.2915 17.5575 18.14 14.1007 18.9712 12.0985C20.0961 9.38882 21.9225 5.33594 24.2895 5.33594Z" fill="#1B1B1B"></path>
</svg>
