<svg width="37" height="35" viewBox="0 0 37 35" fill="none" xmlns="http://www.w3.org/2000/svg">
<path d="M18.4957 22.1138C18.1469 22.1138 9.86753 22.0414 3.53638 15.7091C3.40231 15.575 3.27179 15.4409 3.14365 15.3045C1.81833 13.9044 1.1883 12.2409 1.32238 10.4932C1.43984 8.95197 2.14937 7.45698 3.32163 6.28472C4.49389 5.11246 5.98769 4.40294 7.53013 4.28548C9.14495 4.16208 10.6886 4.69126 12.0187 5.81843C12.1622 4.0814 12.88 2.61607 14.1081 1.56128C15.2815 0.553942 16.8406 -0.000152588 18.4969 -0.000152588C20.1533 -0.000152588 21.7135 0.553942 22.8858 1.56128C24.115 2.61607 24.8316 4.0814 24.9764 5.81843C26.3065 4.69126 27.8501 4.16208 29.4649 4.28548C31.0062 4.40294 32.5012 5.11246 33.6722 6.28472C34.8445 7.45698 35.554 8.95078 35.6715 10.4932C35.8044 12.2409 35.1743 13.9044 33.8502 15.3045C33.7221 15.4397 33.5904 15.575 33.4575 15.7091C27.1239 22.0414 18.8458 22.1138 18.4957 22.1138ZM7.98575 5.58469C6.55009 5.58469 5.20222 6.2515 4.24353 7.21019C2.51955 8.93417 1.73765 11.9218 4.09166 14.4099C4.2115 14.5368 4.33371 14.6626 4.45948 14.7883C10.4133 20.7422 18.4162 20.811 18.4969 20.811C18.5764 20.811 26.5948 20.7268 32.5344 14.7883C32.6601 14.6626 32.7824 14.5368 32.9022 14.4099C35.2562 11.923 34.4731 8.93417 32.7491 7.21138C31.0252 5.4874 28.0376 4.7055 25.5507 7.05832C25.4237 7.17816 25.2979 7.30036 25.1722 7.42613C25.0749 7.52343 24.9823 7.62191 24.8898 7.72039L23.6463 9.03146L23.695 7.23036C23.6985 7.09391 23.7033 6.95628 23.7033 6.81746C23.7033 6.64067 23.7009 6.46507 23.6962 6.28947C23.6012 2.86642 20.9352 1.30618 18.4981 1.30618C16.061 1.30618 13.3938 2.86524 13.3001 6.28947C13.2953 6.46388 13.293 6.63949 13.293 6.81746C13.293 6.95272 13.2965 7.0868 13.3001 7.21968L13.3475 9.03146L12.1088 7.72394C12.0151 7.62428 11.9202 7.52461 11.8229 7.42613C11.6971 7.30036 11.5713 7.17816 11.4444 7.05832C10.3374 6.01064 9.13309 5.58469 7.98575 5.58469Z" fill="#00501E"/>
<path d="M35.4528 31.722C33.119 32.7946 30.4529 33.0747 27.9304 32.5075C25.4839 31.957 23.3387 30.6827 21.6906 28.8116C21.852 28.9231 22.0181 29.0311 22.189 29.1343C23.5985 29.9838 25.1647 30.411 26.7309 30.411C28.1226 30.411 29.5156 30.074 30.7994 29.3953C30.8907 29.3479 30.9809 29.298 31.0711 29.247L30.4256 28.1127C30.3473 28.1578 30.269 28.2005 30.1895 28.242C27.8699 29.4677 25.1315 29.3846 22.8629 28.0178C20.5409 26.6189 19.1539 24.1712 19.1539 21.4707V20.9676H19.142H17.8488H17.8369V21.4707C17.8369 24.1712 16.4499 26.6189 14.1279 28.0178C11.8593 29.3846 9.12087 29.4689 6.80127 28.242C6.72178 28.2005 6.64347 28.1578 6.56516 28.1127L5.9197 29.247C6.00988 29.298 6.10005 29.3479 6.19141 29.3953C7.4752 30.074 8.86696 30.411 10.2599 30.411C11.8261 30.411 13.3911 29.9838 14.8018 29.1343C14.9727 29.0323 15.1388 28.9243 15.3002 28.8116C13.6521 30.6827 11.5069 31.957 9.06036 32.5075C6.53787 33.0758 3.87181 32.7958 1.53797 31.722L0.881836 32.8587C2.62599 33.6798 4.54099 34.0998 6.46431 34.0998C7.43012 34.0998 8.39711 33.9942 9.34631 33.7806C12.2722 33.1221 14.8125 31.5322 16.6895 29.1853C17.1285 28.6372 17.5106 28.0487 17.8357 27.4329V34.0998H19.1408V27.4103C19.4695 28.0344 19.8551 28.6312 20.2989 29.1853C22.1771 31.5322 24.7162 33.1209 27.6421 33.7806C28.5913 33.9942 29.5583 34.0998 30.5241 34.0998C32.4474 34.0998 34.3624 33.6798 36.1066 32.8587L35.4528 31.722Z" fill="#00501E"/>
<path d="M17.6464 15.2012H16.6972C16.6972 13.7881 15.3221 12.6372 13.6313 12.6372C11.9406 12.6372 10.5654 13.7869 10.5654 15.2012H9.61621C9.61621 13.2649 11.4173 11.688 13.6313 11.688C15.8453 11.688 17.6464 13.2637 17.6464 15.2012Z" fill="#00501E"/>
<path d="M14.7231 15.2214C15.4773 15.2214 16.0887 14.61 16.0887 13.8557C16.0887 13.1015 15.4773 12.4901 14.7231 12.4901C13.9688 12.4901 13.3574 13.1015 13.3574 13.8557C13.3574 14.61 13.9688 15.2214 14.7231 15.2214Z" fill="#00501E"/>
<path d="M27.3837 15.2012H26.4345C26.4345 13.7881 25.0594 12.6372 23.3686 12.6372C21.6779 12.6372 20.3027 13.7869 20.3027 15.2012H19.3535C19.3535 13.2649 21.1546 11.688 23.3686 11.688C25.5826 11.688 27.3837 13.2637 27.3837 15.2012Z" fill="#00501E"/>
<path d="M24.4604 15.2214C25.2146 15.2214 25.826 14.61 25.826 13.8557C25.826 13.1015 25.2146 12.4901 24.4604 12.4901C23.7062 12.4901 23.0947 13.1015 23.0947 13.8557C23.0947 14.61 23.7062 15.2214 24.4604 15.2214Z" fill="#00501E"/>
<path d="M18.4798 18.6908C17.3609 18.6908 16.3239 18.1153 15.8398 17.2266L16.674 16.7722C16.9955 17.3607 17.7038 17.7416 18.481 17.7416C19.2581 17.7416 19.9665 17.3607 20.288 16.7722L21.1209 17.2266C20.6357 18.1153 19.5987 18.6908 18.4798 18.6908Z" fill="#00501E"/>
</svg>
